G04 start of page 7 for group 1 layer_idx 9 *
G04 Title: (unknown), top silk *
G04 Creator: pcb-rnd 1.2.1 *
G04 CreationDate: Wed Mar 15 21:37:42 2017 UTC *
G04 For:  *
G04 Format: Gerber/RS-274X *
G04 PCB-Dimensions: 390000 390000 *
G04 PCB-Coordinate-Origin: lower left *
%MOIN*%
%FSLAX25Y25*%
%LNTOPSILK*%
%ADD81C,0.0150*%
%ADD80C,0.0110*%
%ADD79C,0.0050*%
%ADD78C,0.0080*%
%ADD77C,0.0100*%
%ADD76C,0.0075*%
%ADD75C,0.0070*%
%ADD74C,0.0001*%
G54D74*G36*
X108000Y40000D02*X110000D01*
Y30000D01*
X108000D01*
Y40000D01*
G37*
G54D75*X5000Y48500D02*Y42500D01*
X8000D01*
X10850D02*X12800D01*
X9800Y43550D02*X10850Y42500D01*
X9800Y47450D02*Y43550D01*
Y47450D02*X10850Y48500D01*
X12800D01*
X15350D02*Y42500D01*
X17300Y48500D02*X18350Y47450D01*
Y43550D01*
X17300Y42500D02*X18350Y43550D01*
X14600Y42500D02*X17300D01*
X14600Y48500D02*X17300D01*
X22850D02*Y42500D01*
Y43250D02*X23600Y42500D01*
X25100D01*
X25850Y43250D01*
Y44750D02*Y43250D01*
X25100Y45500D02*X25850Y44750D01*
X23600Y45500D02*X25100D01*
X22850Y44750D02*X23600Y45500D01*
X28400Y44750D02*Y42500D01*
Y44750D02*X29150Y45500D01*
X30650D01*
X27650D02*X28400Y44750D01*
X33200Y42500D02*X35450D01*
X32450Y43250D02*X33200Y42500D01*
X32450Y44750D02*Y43250D01*
Y44750D02*X33200Y45500D01*
X34700D01*
X35450Y44750D01*
X32450Y44000D02*X35450D01*
Y44750D02*Y44000D01*
X39500Y45500D02*X40250Y44750D01*
X38000Y45500D02*X39500D01*
X37250Y44750D02*X38000Y45500D01*
X37250Y44750D02*Y43250D01*
X38000Y42500D01*
X40250Y45500D02*Y43250D01*
X41000Y42500D01*
X38000D02*X39500D01*
X40250Y43250D01*
X42800Y48500D02*Y42500D01*
Y44750D02*X45050Y42500D01*
X42800Y44750D02*X44300Y46250D01*
X46850Y44750D02*Y43250D01*
Y44750D02*X47600Y45500D01*
X49100D01*
X49850Y44750D01*
Y43250D01*
X49100Y42500D02*X49850Y43250D01*
X47600Y42500D02*X49100D01*
X46850Y43250D02*X47600Y42500D01*
X51650Y45500D02*Y43250D01*
X52400Y42500D01*
X53900D01*
X54650Y43250D01*
Y45500D02*Y43250D01*
X57200Y48500D02*Y43250D01*
X57950Y42500D01*
X56450Y46250D02*X57950D01*
X62150Y48500D02*Y42500D01*
Y43250D02*X62900Y42500D01*
X64400D01*
X65150Y43250D01*
Y44750D02*Y43250D01*
X64400Y45500D02*X65150Y44750D01*
X62900Y45500D02*X64400D01*
X62150Y44750D02*X62900Y45500D01*
X66950Y44750D02*Y43250D01*
Y44750D02*X67700Y45500D01*
X69200D01*
X69950Y44750D01*
Y43250D01*
X69200Y42500D02*X69950Y43250D01*
X67700Y42500D02*X69200D01*
X66950Y43250D02*X67700Y42500D01*
X74000Y45500D02*X74750Y44750D01*
X72500Y45500D02*X74000D01*
X71750Y44750D02*X72500Y45500D01*
X71750Y44750D02*Y43250D01*
X72500Y42500D01*
X74750Y45500D02*Y43250D01*
X75500Y42500D01*
X72500D02*X74000D01*
X74750Y43250D01*
X78050Y44750D02*Y42500D01*
Y44750D02*X78800Y45500D01*
X80300D01*
X77300D02*X78050Y44750D01*
X85100Y48500D02*Y42500D01*
X84350D02*X85100Y43250D01*
X82850Y42500D02*X84350D01*
X82100Y43250D02*X82850Y42500D01*
X82100Y44750D02*Y43250D01*
Y44750D02*X82850Y45500D01*
X84350D01*
X85100Y44750D01*
X5000Y35500D02*X6500Y32500D01*
X8000Y35500D02*X6500Y32500D01*
X12500Y37300D02*X13700Y38500D01*
Y32500D01*
X12500D02*X14750D01*
X16550D02*X17300D01*
X19100Y33250D02*X19850Y32500D01*
X19100Y37750D02*Y33250D01*
Y37750D02*X19850Y38500D01*
X21350D01*
X22100Y37750D01*
Y33250D01*
X21350Y32500D02*X22100Y33250D01*
X19850Y32500D02*X21350D01*
X19100Y34000D02*X22100Y37000D01*
X26600Y37750D02*X27350Y38500D01*
X29600D01*
X30350Y37750D01*
Y36250D01*
X26600Y32500D02*X30350Y36250D01*
X26600Y32500D02*X30350D01*
X32150Y33250D02*X32900Y32500D01*
X32150Y37750D02*Y33250D01*
Y37750D02*X32900Y38500D01*
X34400D01*
X35150Y37750D01*
Y33250D01*
X34400Y32500D02*X35150Y33250D01*
X32900Y32500D02*X34400D01*
X32150Y34000D02*X35150Y37000D01*
X36950Y37300D02*X38150Y38500D01*
Y32500D01*
X36950D02*X39200D01*
X41750D02*X44750Y38500D01*
X41000D02*X44750D01*
X46550Y35500D02*X49550D01*
X51350Y33250D02*X52100Y32500D01*
X51350Y37750D02*Y33250D01*
Y37750D02*X52100Y38500D01*
X53600D01*
X54350Y37750D01*
Y33250D01*
X53600Y32500D02*X54350Y33250D01*
X52100Y32500D02*X53600D01*
X51350Y34000D02*X54350Y37000D01*
X56150Y37750D02*X56900Y38500D01*
X58400D01*
X59150Y37750D01*
X58400Y32500D02*X59150Y33250D01*
X56900Y32500D02*X58400D01*
X56150Y33250D02*X56900Y32500D01*
Y35800D02*X58400D01*
X59150Y37750D02*Y36550D01*
Y35050D02*Y33250D01*
Y35050D02*X58400Y35800D01*
X59150Y36550D02*X58400Y35800D01*
X60950Y35500D02*X63950D01*
X65750Y37300D02*X66950Y38500D01*
Y32500D01*
X65750D02*X68000D01*
X69800Y38500D02*X72800D01*
X69800D02*Y35500D01*
X70550Y36250D01*
X72050D01*
X72800Y35500D01*
Y33250D01*
X72050Y32500D02*X72800Y33250D01*
X70550Y32500D02*X72050D01*
X69800Y33250D02*X70550Y32500D01*
X5000Y14750D02*Y13250D01*
Y14750D02*X5750Y15500D01*
X7250D01*
X8000Y14750D01*
Y13250D01*
X7250Y12500D02*X8000Y13250D01*
X5750Y12500D02*X7250D01*
X5000Y13250D02*X5750Y12500D01*
X9800Y18500D02*Y13250D01*
X10550Y12500D01*
X12800D02*X15050D01*
X12050Y13250D02*X12800Y12500D01*
X12050Y14750D02*Y13250D01*
Y14750D02*X12800Y15500D01*
X14300D01*
X15050Y14750D01*
X12050Y14000D02*X15050D01*
Y14750D02*Y14000D01*
X16850Y18500D02*Y12500D01*
Y14750D02*X19100Y12500D01*
X16850Y14750D02*X18350Y16250D01*
X20900Y18500D02*Y12500D01*
Y14750D02*X21650Y15500D01*
X23150D01*
X23900Y14750D01*
Y12500D01*
X25700Y14750D02*Y13250D01*
Y14750D02*X26450Y15500D01*
X27950D01*
X28700Y14750D01*
Y13250D01*
X27950Y12500D02*X28700Y13250D01*
X26450Y12500D02*X27950D01*
X25700Y13250D02*X26450Y12500D01*
X30500Y15500D02*X32000Y12500D01*
X33500Y15500D02*X32000Y12500D01*
X35300Y18500D02*Y14000D01*
X36800Y12500D01*
X41300D01*
X42800Y18500D02*Y14750D01*
Y18500D02*X41300Y20000D01*
X36800D02*X41300D01*
X36800D02*X35300Y18500D01*
X37550Y17000D02*Y15500D01*
X38300Y14750D01*
X39800D01*
X40550Y15500D01*
X41300Y14750D01*
X40550Y17750D02*Y15500D01*
Y17000D02*X39800Y17750D01*
X38300D02*X39800D01*
X38300D02*X37550Y17000D01*
X41300Y14750D02*X42800D01*
X46850Y15500D02*X47600Y14750D01*
X45350Y15500D02*X46850D01*
X44600Y14750D02*X45350Y15500D01*
X44600Y14750D02*Y13250D01*
X45350Y12500D01*
X46850D01*
X47600Y13250D01*
X44600Y11000D02*X45350Y10250D01*
X46850D01*
X47600Y11000D01*
Y15500D02*Y11000D01*
X50150Y14750D02*Y12500D01*
Y14750D02*X50900Y15500D01*
X51650D01*
X52400Y14750D01*
Y12500D01*
Y14750D02*X53150Y15500D01*
X53900D01*
X54650Y14750D01*
Y12500D01*
X49400Y15500D02*X50150Y14750D01*
X58700Y15500D02*X59450Y14750D01*
X57200Y15500D02*X58700D01*
X56450Y14750D02*X57200Y15500D01*
X56450Y14750D02*Y13250D01*
X57200Y12500D01*
X59450Y15500D02*Y13250D01*
X60200Y12500D01*
X57200D02*X58700D01*
X59450Y13250D01*
G54D76*X62000Y17000D02*Y16850D01*
G54D75*Y14750D02*Y12500D01*
X63500Y18500D02*Y13250D01*
X64250Y12500D01*
X65750D02*X66500D01*
X69050Y15500D02*X71300D01*
X68300Y14750D02*X69050Y15500D01*
X68300Y14750D02*Y13250D01*
X69050Y12500D01*
X71300D01*
X73100Y14750D02*Y13250D01*
Y14750D02*X73850Y15500D01*
X75350D01*
X76100Y14750D01*
Y13250D01*
X75350Y12500D02*X76100Y13250D01*
X73850Y12500D02*X75350D01*
X73100Y13250D02*X73850Y12500D01*
X78650Y14750D02*Y12500D01*
Y14750D02*X79400Y15500D01*
X80150D01*
X80900Y14750D01*
Y12500D01*
Y14750D02*X81650Y15500D01*
X82400D01*
X83150Y14750D01*
Y12500D01*
X77900Y15500D02*X78650Y14750D01*
X5000Y28500D02*X8000D01*
X8750Y27750D01*
Y26250D01*
X8000Y25500D02*X8750Y26250D01*
X5750Y25500D02*X8000D01*
X5750Y28500D02*Y22500D01*
X6950Y25500D02*X8750Y22500D01*
X10550Y28500D02*Y23250D01*
X11300Y22500D01*
X12800D01*
X13550Y23250D01*
Y28500D02*Y23250D01*
X15350Y22500D02*X18350D01*
X20150D02*X23150D01*
X23900Y23250D01*
Y25050D02*Y23250D01*
X23150Y25800D02*X23900Y25050D01*
X20900Y25800D02*X23150D01*
X20900Y28500D02*Y22500D01*
X20150Y28500D02*X23150D01*
X23900Y27750D01*
Y26550D01*
X23150Y25800D02*X23900Y26550D01*
X27950Y25500D02*X28700Y24750D01*
X26450Y25500D02*X27950D01*
X25700Y24750D02*X26450Y25500D01*
X25700Y24750D02*Y23250D01*
X26450Y22500D01*
X28700Y25500D02*Y23250D01*
X29450Y22500D01*
X26450D02*X27950D01*
X28700Y23250D01*
X32000Y22500D02*X34250D01*
X35000Y23250D01*
X34250Y24000D02*X35000Y23250D01*
X32000Y24000D02*X34250D01*
X31250Y24750D02*X32000Y24000D01*
X31250Y24750D02*X32000Y25500D01*
X34250D01*
X35000Y24750D01*
X31250Y23250D02*X32000Y22500D01*
G54D76*X36800Y27000D02*Y26850D01*
G54D75*Y24750D02*Y22500D01*
X38300Y28500D02*Y23250D01*
X39050Y22500D01*
G54D76*X40550Y27000D02*Y26850D01*
G54D75*Y24750D02*Y22500D01*
X42050Y24750D02*Y23250D01*
Y24750D02*X42800Y25500D01*
X44300D01*
X45050Y24750D01*
Y23250D01*
X44300Y22500D02*X45050Y23250D01*
X42800Y22500D02*X44300D01*
X42050Y23250D02*X42800Y22500D01*
X99000Y23000D02*Y20000D01*
Y21500D02*X105000D01*
X99000Y24800D02*X105000D01*
X99000D02*X102000Y27050D01*
X99000Y29300D01*
X105000D01*
X100200Y31100D02*X99000Y32300D01*
X105000D01*
Y33350D02*Y31100D01*
X99000Y37400D02*X99750Y38150D01*
X99000Y37400D02*Y35900D01*
X99750Y35150D02*X99000Y35900D01*
X99750Y35150D02*X104250D01*
X105000Y35900D01*
X101700Y37400D02*X102450Y38150D01*
X101700Y37400D02*Y35150D01*
X105000Y37400D02*Y35900D01*
Y37400D02*X104250Y38150D01*
X102450D02*X104250D01*
X99750Y39950D02*X99000Y40700D01*
Y42200D02*Y40700D01*
Y42200D02*X99750Y42950D01*
X105000Y42200D02*X104250Y42950D01*
X105000Y42200D02*Y40700D01*
X104250Y39950D02*X105000Y40700D01*
X101700Y42200D02*Y40700D01*
X99750Y42950D02*X100950D01*
X102450D02*X104250D01*
X102450D02*X101700Y42200D01*
X100950Y42950D02*X101700Y42200D01*
X104250Y44750D02*X105000Y45500D01*
X103050Y44750D02*X104250D01*
X103050D02*X102000Y45800D01*
Y46700D02*Y45800D01*
Y46700D02*X103050Y47750D01*
X104250D01*
X105000Y47000D02*X104250Y47750D01*
X105000Y47000D02*Y45500D01*
X100950Y44750D02*X102000Y45800D01*
X99750Y44750D02*X100950D01*
X99750D02*X99000Y45500D01*
Y47000D02*Y45500D01*
Y47000D02*X99750Y47750D01*
X100950D01*
X102000Y46700D02*X100950Y47750D01*
G54D77*X95000Y355000D02*Y155000D01*
Y355000D02*X105000D01*
Y155000D02*X95000D01*
X105000D02*Y355000D01*
X95000Y345000D02*X105000D01*
Y355000D02*Y345000D01*
X5000Y355000D02*Y155000D01*
Y355000D02*X15000D01*
Y155000D02*X5000D01*
X15000D02*Y355000D01*
X5000Y345000D02*X15000D01*
Y355000D02*Y345000D01*
X20000Y355000D02*Y155000D01*
Y355000D02*X90000D01*
Y155000D01*
X20000D02*X50000D01*
X60000D02*X90000D01*
X60000D02*G75*G03X50000Y155000I-5000J0D01*G01*
G54D78*X189607Y102755D02*X190393D01*
X189607Y97245D02*X190393D01*
X154607Y102755D02*X155393D01*
X154607Y97245D02*X155393D01*
G54D77*X150800Y93500D02*Y52100D01*
X179300D01*
Y93500D01*
X150800D01*
X185800D02*Y52100D01*
X214300D01*
Y93500D01*
X185800D01*
X240000Y28200D02*G75*G03X240000Y51800I0J11800D01*G01*
G75*G03X240000Y28200I0J-11800D01*G01*
Y26200D02*G75*G03X240000Y53800I0J13800D01*G01*
G75*G03X240000Y26200I0J-13800D01*G01*
X325000Y305000D02*Y145000D01*
Y305000D02*X335000D01*
X325000Y145000D02*X335000D01*
Y305000D02*Y145000D01*
X325000Y300000D02*X320000Y302500D01*
X325000Y300000D02*X320000Y297500D01*
Y302500D02*Y297500D01*
X316535Y225285D02*X321734D01*
Y228255D02*Y225285D01*
X317772Y233527D02*X317278Y233279D01*
X316783Y232784D01*
X316535Y232290D01*
Y231298D01*
X316783Y230804D01*
X317278Y230307D01*
X317772Y230060D01*
X318516Y229813D01*
X319755D01*
X320496Y230060D01*
X320991Y230307D01*
X321485Y230804D01*
X321734Y231298D01*
Y232290D02*Y231298D01*
Y232290D02*X321485Y232784D01*
X320991Y233279D01*
X320496Y233527D01*
X316535Y235086D02*X321734D01*
X316535Y236820D02*Y235086D01*
Y236820D02*X316783Y237562D01*
X317278Y238057D01*
X317772Y238304D01*
X318516Y238551D01*
X319755D01*
X320496Y238304D01*
X320991Y238057D01*
X321485Y237562D01*
X321734Y236820D01*
Y235086D01*
X316535Y242450D02*X321734D01*
X316535Y245917D02*X321734D01*
X319011D02*Y242450D01*
X316535Y247475D02*X321734D01*
X316535Y249209D02*Y247475D01*
Y249209D02*X316783Y249951D01*
X317278Y250446D01*
X317772Y250693D01*
X318516Y250940D01*
X319755D01*
X320496Y250693D01*
X320991Y250446D01*
X321485Y249951D01*
X321734Y249209D01*
Y247475D01*
X316535Y254975D02*X320000Y252500D01*
Y256213D02*Y252500D01*
X316535Y254975D02*X321734D01*
X316535Y260247D02*X320000Y257772D01*
Y261485D02*Y257772D01*
X316535Y260247D02*X321734D01*
X316535Y266510D02*X321734Y264034D01*
X316535Y266510D02*Y263045D01*
Y269307D02*X316782Y268564D01*
X317277Y268317D01*
X317772D01*
X318268Y268564D01*
X318516Y269059D01*
X318762Y270049D01*
X319010Y270793D01*
X319505Y271287D01*
X320000Y271535D01*
X320743D01*
X321237Y271287D01*
X321485Y271039D01*
X321734Y270296D01*
Y269307D01*
X321485Y268564D01*
X321237Y268317D01*
X320743Y268070D01*
X320000D02*X320743D01*
X320000D02*X319505Y268317D01*
X319010Y268811D01*
X318762Y269554D01*
X318516Y270545D01*
X318268Y271039D01*
X317772Y271287D01*
X317277D02*X317772D01*
X317277D02*X316782Y271039D01*
X316535Y270296D01*
Y269307D01*
Y274580D02*X316782Y273838D01*
X317524Y273342D01*
X318762Y273095D01*
X319505D01*
X320743Y273342D01*
X321485Y273838D01*
X321734Y274580D01*
Y275076D02*Y274580D01*
Y275076D02*X321485Y275818D01*
X320743Y276313D01*
X319505Y276562D01*
X318762D02*X319505D01*
X318762D02*X317524Y276313D01*
X316782Y275818D01*
X316535Y275076D01*
Y274580D01*
X336977Y282227D02*X338957Y277028D01*
X340940Y282227D02*X338957Y277028D01*
X343985Y282227D02*X343243Y281980D01*
X342747Y281238D01*
X342500Y280000D01*
Y279257D01*
X342747Y278019D01*
X343243Y277277D01*
X343985Y277028D01*
X344481D01*
X345223Y277277D01*
X345718Y278019D01*
X345967Y279257D01*
Y280000D02*Y279257D01*
Y280000D02*X345718Y281238D01*
X345223Y281980D01*
X344481Y282227D01*
X343985D02*X344481D01*
X337500Y252500D02*Y247301D01*
Y252500D02*X340719D01*
X337500Y250024D02*X339480D01*
X337500Y247301D02*X340719D01*
X337253Y242747D02*Y237548D01*
Y242747D02*X338987D01*
X339729Y242499D01*
X340224Y242004D01*
X340471Y241510D01*
X340718Y240766D01*
Y239527D01*
X340471Y238786D01*
X340224Y238291D01*
X339729Y237797D01*
X338987Y237548D01*
X337253D02*X338987D01*
X343762Y242747D02*X343020Y242500D01*
X342524Y241758D01*
X342277Y240520D01*
Y239777D01*
X342524Y238539D01*
X343020Y237797D01*
X343762Y237548D01*
X344258D01*
X345000Y237797D01*
X345495Y238539D01*
X345744Y239777D01*
Y240520D02*Y239777D01*
Y240520D02*X345495Y241758D01*
X345000Y242500D01*
X344258Y242747D01*
X343762D02*X344258D01*
X347233Y297266D02*X348967D01*
X349709Y297515D02*X348967Y297266D01*
X350204Y298009D02*X349709Y297515D01*
X350451Y298504D02*X350204Y298009D01*
X350698Y299245D02*X350451Y298504D01*
X350698Y300484D02*Y299245D01*
X350451Y301228D02*X350698Y300484D01*
X350204Y301722D02*X350451Y301228D01*
X349709Y302217D02*X350204Y301722D01*
X348967Y302465D02*X349709Y302217D01*
X347233Y302465D02*X348967D01*
X347233D02*Y297266D01*
X345673Y302465D02*Y297266D01*
X342208Y302465D02*X345673Y297266D01*
X342208Y302465D02*Y297266D01*
X339412Y299245D02*X340649D01*
Y298504D01*
X340401Y298009D02*X340649Y298504D01*
X339907Y297515D02*X340401Y298009D01*
X339412Y297266D02*X339907Y297515D01*
X338421Y297266D02*X339412D01*
X337926Y297515D02*X338421Y297266D01*
X337430Y298009D02*X337926Y297515D01*
X337183Y298504D02*X337430Y298009D01*
X336935Y299245D02*X337183Y298504D01*
X336935Y300484D02*Y299245D01*
X337183Y301228D02*X336935Y300484D01*
X337430Y301722D02*X337183Y301228D01*
X337926Y302217D02*X337430Y301722D01*
X338421Y302465D02*X337926Y302217D01*
X338421Y302465D02*X339412D01*
X339907Y302217D02*X339412Y302465D01*
X340401Y301722D02*X339907Y302217D01*
X340649Y301228D02*X340401Y301722D01*
X337020Y292699D02*X339000Y287500D01*
X340983Y292699D02*X339000Y287500D01*
X346256Y291462D02*X346008Y291956D01*
X345513Y292451D01*
X345019Y292699D01*
X344027D02*X345019D01*
X344027D02*X343533Y292451D01*
X343036Y291956D01*
X342789Y291462D01*
X342542Y290718D01*
Y289479D01*
X342789Y288738D01*
X343036Y288243D01*
X343533Y287749D01*
X344027Y287500D01*
X345019D01*
X345513Y287749D01*
X346008Y288243D01*
X346256Y288738D01*
X351528Y291462D02*X351280Y291956D01*
X350785Y292451D01*
X350291Y292699D01*
X349299D02*X350291D01*
X349299D02*X348805Y292451D01*
X348308Y291956D01*
X348061Y291462D01*
X347814Y290718D01*
Y289479D01*
X348061Y288738D01*
X348308Y288243D01*
X348805Y287749D01*
X349299Y287500D01*
X350291D01*
X350785Y287749D01*
X351280Y288243D01*
X351528Y288738D01*
X337279Y262965D02*Y257766D01*
Y262965D02*X339507D01*
X340249Y262717D01*
X340497Y262470D01*
X340744Y261975D01*
Y261479D01*
X340497Y260984D01*
X340249Y260737D01*
X339507Y260489D01*
X337279D02*X339507D01*
X339011D02*X340744Y257766D01*
X345230Y262965D02*X342304Y257766D01*
X346788Y262965D02*X348026Y257766D01*
X349265Y262965D02*X348026Y257766D01*
X349265Y262965D02*X350502Y257766D01*
X351740Y262965D02*X350502Y257766D01*
X337272Y272976D02*Y267777D01*
Y272976D02*X339500D01*
X340242Y272728D01*
X340490Y272481D01*
X340737Y271986D01*
Y271490D01*
X340490Y270995D01*
X340242Y270748D01*
X339500Y270500D01*
X337272D02*X339500D01*
X339004D02*X340737Y267777D01*
X345762Y272233D02*X345267Y272728D01*
X344525Y272976D01*
X343534D02*X344525D01*
X343534D02*X342791Y272728D01*
X342297Y272233D01*
Y271739D01*
X342542Y271242D01*
X342791Y270995D01*
X343287Y270748D01*
X344773Y270253D01*
X345267Y270004D01*
X345514Y269757D01*
X345762Y269263D01*
Y268520D01*
X345267Y268026D01*
X344525Y267777D01*
X343534D02*X344525D01*
X343534D02*X342791Y268026D01*
X342297Y268520D01*
X337459Y232981D02*Y227782D01*
Y232981D02*X339193D01*
X339935Y232733D01*
X340430Y232238D01*
X340677Y231744D01*
X340924Y231000D01*
Y229761D01*
X340677Y229020D01*
X340430Y228525D01*
X339935Y228031D01*
X339193Y227782D01*
X337459D02*X339193D01*
X342484Y231992D02*X342978Y232239D01*
X343721Y232981D01*
Y227782D01*
X337035Y223481D02*Y218282D01*
Y223481D02*X338769D01*
X339511Y223233D01*
X340006Y222738D01*
X340253Y222244D01*
X340500Y221500D01*
Y220261D01*
X340253Y219520D01*
X340006Y219025D01*
X339511Y218531D01*
X338769Y218282D01*
X337035D02*X338769D01*
X342307Y222492D02*Y222244D01*
Y222492D02*X342555Y222986D01*
X342801Y223234D01*
X343297Y223481D01*
X344286D01*
X344783Y223234D01*
X345030Y222986D01*
X345277Y222492D01*
Y221995D01*
X345030Y221500D01*
X344535Y220758D01*
X342060Y218282D01*
X345525D01*
X337035Y212981D02*Y207782D01*
Y212981D02*X338769D01*
X339511Y212733D01*
X340006Y212238D01*
X340253Y211744D01*
X340500Y211000D01*
Y209761D01*
X340253Y209020D01*
X340006Y208525D01*
X339511Y208031D01*
X338769Y207782D01*
X337035D02*X338769D01*
X342554Y212981D02*X345277D01*
X343791Y211000D01*
X344535D01*
X345029Y210754D01*
X345277Y210506D01*
X345525Y209762D01*
Y209270D01*
X345277Y208526D01*
X344783Y208031D01*
X344039Y207782D01*
X343297D02*X344039D01*
X343297D02*X342554Y208031D01*
X342307Y208279D01*
X342060Y208773D01*
X337035Y202981D02*Y197782D01*
Y202981D02*X338769D01*
X339511Y202733D01*
X340006Y202238D01*
X340253Y201744D01*
X340500Y201000D01*
Y199761D01*
X340253Y199020D01*
X340006Y198525D01*
X339511Y198031D01*
X338769Y197782D01*
X337035D02*X338769D01*
X344535Y202981D02*X342060Y199516D01*
X345773D01*
X344535Y202981D02*Y197782D01*
X336782Y193237D02*Y188038D01*
Y193237D02*X338516D01*
X339258Y192989D01*
X339753Y192494D01*
X340000Y192000D01*
X340247Y191256D01*
Y190017D01*
X340000Y189276D01*
X339753Y188781D01*
X339258Y188287D01*
X338516Y188038D01*
X336782D02*X338516D01*
X342302Y193237D02*X344778D01*
X342302D02*X342054Y191010D01*
X342302Y191256D01*
X343044Y191504D01*
X343788D01*
X344530Y191256D01*
X345025Y190762D01*
X345274Y190018D01*
Y189526D01*
X345025Y188782D01*
X344530Y188287D01*
X343788Y188038D01*
X343044D02*X343788D01*
X343044D02*X342302Y188287D01*
X342054Y188535D01*
X341807Y189029D01*
X337024Y182748D02*Y177549D01*
Y182748D02*X338758D01*
X339500Y182500D01*
X339995Y182005D01*
X340242Y181511D01*
X340489Y180767D01*
Y179528D01*
X340242Y178787D01*
X339995Y178292D01*
X339500Y177798D01*
X338758Y177549D01*
X337024D02*X338758D01*
X345019Y182006D02*X344772Y182501D01*
X344028Y182748D01*
X343534D02*X344028D01*
X343534D02*X342789Y182501D01*
X342295Y181759D01*
X342048Y180521D01*
Y179283D01*
X342295Y178293D01*
X342789Y177798D01*
X343534Y177549D01*
X343781D01*
X344524Y177798D01*
X345019Y178293D01*
X345266Y179037D01*
Y179283D02*Y179037D01*
Y179283D02*X345019Y180025D01*
X344524Y180521D01*
X343781Y180767D01*
X343534D02*X343781D01*
X343534D02*X342789Y180521D01*
X342295Y180025D01*
X342048Y179283D01*
X337024Y172748D02*Y167549D01*
Y172748D02*X338758D01*
X339500Y172500D01*
X339995Y172005D01*
X340242Y171511D01*
X340489Y170767D01*
Y169528D01*
X340242Y168787D01*
X339995Y168292D01*
X339500Y167798D01*
X338758Y167549D01*
X337024D02*X338758D01*
X345514Y172748D02*X343038Y167549D01*
X342049Y172748D02*X345514D01*
X337000Y163000D02*Y157801D01*
Y163000D02*X339228D01*
X339970Y162752D01*
X340218Y162505D01*
X340465Y162008D01*
Y161514D01*
X340218Y161019D01*
X339970Y160771D01*
X339228Y160524D01*
X337000D02*X339228D01*
X339970Y160277D01*
X340218Y160028D01*
X340465Y159534D01*
Y158792D01*
X340218Y158295D01*
X339970Y158050D01*
X339228Y157801D01*
X337000D02*X339228D01*
X342025Y163000D02*Y157801D01*
X344995D01*
X348534Y163000D02*X346553Y157801D01*
X348534Y163000D02*X350516Y157801D01*
X347297Y159534D02*X349773D01*
X353808Y164300D02*X353312Y163805D01*
X352817Y163063D01*
X352320Y162071D01*
X352075Y160833D01*
Y159843D01*
X352320Y158606D01*
X352817Y157615D01*
X353312Y156873D01*
X353808Y156378D01*
X357593Y162675D02*Y158220D01*
X355365Y160447D02*X359822D01*
X361381Y164300D02*X361875Y163805D01*
X362371Y163063D01*
X362867Y162071D01*
X363112Y160833D01*
Y159843D01*
X362867Y158606D01*
X362371Y157615D01*
X361875Y156873D01*
X361381Y156378D01*
X337000Y152976D02*Y147777D01*
Y152976D02*X339228D01*
X339970Y152728D01*
X340218Y152481D01*
X340465Y151984D01*
Y151490D01*
X340218Y150995D01*
X339970Y150747D01*
X339228Y150500D01*
X337000D02*X339228D01*
X339970Y150253D01*
X340218Y150004D01*
X340465Y149510D01*
Y148768D01*
X340218Y148271D01*
X339970Y148026D01*
X339228Y147777D01*
X337000D02*X339228D01*
X342025Y152976D02*Y147777D01*
X344995D01*
X346554Y152976D02*Y147777D01*
X350019Y152976D02*X346554Y149510D01*
X347791Y150747D02*X350019Y147777D01*
X353312Y154276D02*X352816Y153781D01*
X352321Y153039D01*
X351824Y152047D01*
X351579Y150809D01*
Y149819D01*
X351824Y148582D01*
X352321Y147591D01*
X352816Y146849D01*
X353312Y146354D01*
X354870Y150376D02*X358119D01*
X359679Y154276D02*X360173Y153781D01*
X360669Y153039D01*
X361165Y152047D01*
X361410Y150809D01*
Y149819D01*
X361165Y148582D01*
X360669Y147591D01*
X360173Y146849D01*
X359679Y146354D01*
X221000Y352500D02*X222000D01*
X220000Y351000D02*X223000D01*
X219000Y349500D02*X224000D01*
X221500D02*X224000D01*
X221500D02*Y347000D01*
X221000Y342500D02*X222000D01*
X220000Y341000D02*X223000D01*
X219000Y339500D02*X224000D01*
X221500D02*X224000D01*
X221500D02*Y337000D01*
X212750Y359750D02*X211750Y360750D01*
X212750Y359750D02*X214250D01*
X212250D02*X214250D01*
X211750Y359250D02*X212250Y359750D01*
X211750Y359250D02*Y357750D01*
X212250Y357250D02*X214250D01*
X211750Y357750D02*X212250Y357250D01*
X211750Y362250D02*Y360750D01*
X212250Y362750D02*X211750Y362250D01*
X212250Y362750D02*X214250D01*
Y357250D01*
X206750Y362250D02*Y357250D01*
X207250Y362750D02*X206750Y362250D01*
X207250Y362750D02*X209250D01*
X209750Y362250D02*X209250Y362750D01*
X209750Y362250D02*Y357250D01*
X202250D02*X201750Y357750D01*
X202250Y357250D02*X204250D01*
X204750Y357750D02*X204250Y357250D01*
Y362750D02*X204750Y362250D01*
X202250Y362750D02*X204250D01*
X201750Y362250D02*X202250Y362750D01*
X201750Y362250D02*Y360250D01*
X202250Y359750D02*X201750Y360250D01*
X202250Y359750D02*X204250D01*
X204750Y359250D02*X204250Y359750D01*
X204750Y359250D02*Y357750D01*
X216250Y361250D02*Y357250D01*
X217750Y362750D02*X216250Y361250D01*
X219250D02*X217750Y362750D01*
X219250Y361250D02*Y357250D01*
X221500Y359500D02*X224500D01*
X223000Y361000D02*Y358000D01*
X63500Y362500D02*X64500Y361500D01*
X62000Y362500D02*X63500D01*
X61000Y361500D02*X62000Y362500D01*
X61000Y361500D02*Y360500D01*
X62000Y359500D02*X61000Y360500D01*
Y358500D02*X62000Y359500D01*
X61000Y358500D02*Y357500D01*
X62000Y356500D02*X61000Y357500D01*
X62000Y356500D02*X63500D01*
X64500Y357500D02*X63500Y356500D01*
X57000Y362500D02*X58000Y361500D01*
X55500Y362500D02*X57000D01*
X54500Y361500D02*X55500Y362500D01*
X54500Y361500D02*Y360500D01*
X55500Y359500D02*X54500Y360500D01*
Y358500D02*X55500Y359500D01*
X54500Y358500D02*Y357500D01*
X55500Y356500D02*X54500Y357500D01*
X55500Y356500D02*X57000D01*
X58000Y357500D02*X57000Y356500D01*
X59500Y362500D03*
X66500Y359500D02*X69500D01*
X68000Y361000D02*Y358000D01*
X56000Y353000D02*X57000D01*
X55000Y351500D02*X58000D01*
X54000Y350000D02*X59000D01*
X56500D02*X59000D01*
X56500D02*Y347500D01*
X56000Y343000D02*X57000D01*
X55000Y341500D02*X58000D01*
X54000Y340000D02*X59000D01*
X56500D02*X59000D01*
X56500D02*Y337500D01*
G54D79*X215000Y325000D02*Y225000D01*
Y325000D02*X235000D01*
X215000Y225000D02*X235000D01*
Y325000D02*Y225000D01*
X45000Y325000D02*Y225000D01*
Y325000D02*X65000D01*
X45000Y225000D02*X65000D01*
Y325000D02*Y225000D01*
X45000Y320000D03*
X40000Y370000D02*X240000D01*
X40000D02*Y110000D01*
X240000D01*
Y370000D02*Y110000D01*
X50000Y225000D02*X47500Y220000D01*
X50000Y225000D02*X52500Y220000D01*
X47500D02*X52500D01*
G54D80*X385000Y74370D02*X384980Y74350D01*
X385000Y381417D02*Y74370D01*
X109409Y74350D02*X385374D01*
X109409Y74370D02*X109390Y74350D01*
X109409Y381457D02*Y74370D01*
Y381457D02*X109390Y381437D01*
X385000Y381457D02*X109409D01*
X385000Y381417D02*X384980Y381437D01*
G54D81*X380000Y325000D02*Y335000D01*
X370000Y325000D02*X380000D01*
Y335000D02*X370000D01*
X380000Y135000D02*Y335000D01*
X370000Y135000D02*X380000D01*
X370000Y335000D02*Y135000D01*
G54D77*X315500Y33500D02*X334500D01*
X315500D02*Y31000D01*
Y66000D02*X334500D01*
X315500Y68500D02*Y66000D01*
Y68500D02*X334500D01*
Y31000D01*
X315500D02*X334500D01*
X317500Y66000D02*Y33500D01*
X292717Y57559D02*Y2441D01*
X257284Y57559D02*X292717D01*
X257284D02*Y2441D01*
X292717D01*
X257284Y14252D02*X292717D01*
X345500Y33500D02*X364500D01*
X345500D02*Y31000D01*
Y66000D02*X364500D01*
X345500Y68500D02*Y66000D01*
Y68500D02*X364500D01*
Y31000D01*
X345500D02*X364500D01*
X347500Y66000D02*Y33500D01*
X110000Y60000D02*Y10000D01*
Y60000D02*X130000D01*
X110000Y10000D02*X130000D01*
Y60000D02*Y10000D01*
X110000Y55000D02*X105000Y57500D01*
X110000Y55000D02*X105000Y52500D01*
Y57500D02*Y52500D01*
G54D75*X25000Y164500D02*Y161000D01*
Y164500D02*X24500Y165000D01*
X23500D02*X24500D01*
X23500D02*X23000Y164500D01*
Y161000D01*
X21800Y161800D02*X21000Y161000D01*
Y165000D02*Y161000D01*
X20300Y165000D02*X21800D01*
X98200Y361500D02*X99000D01*
Y358000D01*
X98500Y357500D02*X99000Y358000D01*
X98000Y357500D02*X98500D01*
X97500Y358000D02*X98000Y357500D01*
X97500Y358500D02*Y358000D01*
X100200Y361000D02*X100700Y361500D01*
X102200D01*
X102700Y361000D01*
Y360000D01*
X100200Y357500D02*X102700Y360000D01*
X100200Y357500D02*X102700D01*
X8200Y361500D02*X9000D01*
Y358000D01*
X8500Y357500D02*X9000Y358000D01*
X8000Y357500D02*X8500D01*
X7500Y358000D02*X8000Y357500D01*
X7500Y358500D02*Y358000D01*
X10200Y360700D02*X11000Y361500D01*
Y357500D01*
X10200D02*X11700D01*
X57500Y167000D02*Y163500D01*
Y167000D02*X57000Y167500D01*
X56000D02*X57000D01*
X56000D02*X55500Y167000D01*
Y163500D01*
X52800D02*X52300Y164000D01*
X52800Y163500D02*X53800D01*
X54300Y164000D02*X53800Y163500D01*
X54300Y167000D02*Y164000D01*
Y167000D02*X53800Y167500D01*
X52800Y165300D02*X52300Y165800D01*
X52800Y165300D02*X54300D01*
X52800Y167500D02*X53800D01*
X52800D02*X52300Y167000D01*
Y165800D01*
X190395Y104771D02*X191695D01*
X189695Y105471D02*X190395Y104771D01*
X189695Y108071D02*Y105471D01*
Y108071D02*X190395Y108771D01*
X191695D01*
X192895Y108271D02*X193395Y108771D01*
X194395D01*
X194895Y108271D01*
X194395Y104771D02*X194895Y105271D01*
X193395Y104771D02*X194395D01*
X192895Y105271D02*X193395Y104771D01*
Y106971D02*X194395D01*
X194895Y108271D02*Y107471D01*
Y106471D02*Y105271D01*
Y106471D02*X194395Y106971D01*
X194895Y107471D02*X194395Y106971D01*
X154760Y104930D02*X156060D01*
X154060Y105630D02*X154760Y104930D01*
X154060Y108230D02*Y105630D01*
Y108230D02*X154760Y108930D01*
X156060D01*
X157260Y108430D02*X157760Y108930D01*
X159260D01*
X159760Y108430D01*
Y107430D01*
X157260Y104930D02*X159760Y107430D01*
X157260Y104930D02*X159760D01*
X141800Y93500D02*X145300D01*
X141800D02*X141300Y93000D01*
Y92000D01*
X141800Y91500D01*
X145300D01*
X144800Y90300D02*X145300Y89800D01*
Y88300D01*
X144800Y87800D01*
X143800D02*X144800D01*
X141300Y90300D02*X143800Y87800D01*
X141300Y90300D02*Y87800D01*
X216800Y93500D02*X220300D01*
X216800D02*X216300Y93000D01*
Y92000D01*
X216800Y91500D01*
X220300D01*
X219800Y90300D02*X220300Y89800D01*
Y88800D01*
X219800Y88300D01*
X216300Y88800D02*X216800Y88300D01*
X216300Y89800D02*Y88800D01*
X216800Y90300D02*X216300Y89800D01*
X218500D02*Y88800D01*
X219000Y88300D02*X219800D01*
X216800D02*X218000D01*
X218500Y88800D01*
X219000Y88300D02*X218500Y88800D01*
X327500Y313500D02*Y310000D01*
X328000Y309500D01*
X329000D01*
X329500Y310000D01*
Y313500D02*Y310000D01*
X330700Y311000D02*X332700Y313500D01*
X330700Y311000D02*X333200D01*
X332700Y313500D02*Y309500D01*
X370699Y346318D02*Y342818D01*
X371199Y342318D01*
X372199D01*
X372699Y342818D01*
Y346318D02*Y342818D01*
X373899Y346318D02*X375899D01*
X373899D02*Y344318D01*
X374399Y344818D01*
X375399D01*
X375899Y344318D01*
Y342818D01*
X375399Y342318D02*X375899Y342818D01*
X374399Y342318D02*X375399D01*
X373899Y342818D02*X374399Y342318D01*
X320478Y25826D02*X322478D01*
X322978Y25326D01*
Y24326D01*
X322478Y23826D02*X322978Y24326D01*
X320978Y23826D02*X322478D01*
X320978Y25826D02*Y21826D01*
X321778Y23826D02*X322978Y21826D01*
X324178Y25026D02*X324978Y25826D01*
Y21826D01*
X324178D02*X325678D01*
X242000Y17000D02*Y15700D01*
X241300Y15000D02*X242000Y15700D01*
X238700Y15000D02*X241300D01*
X238700D02*X238000Y15700D01*
Y17000D02*Y15700D01*
X238800Y18200D02*X238000Y19000D01*
X242000D01*
Y19700D02*Y18200D01*
X350000Y26500D02*X352000D01*
X352500Y26000D01*
Y25000D01*
X352000Y24500D02*X352500Y25000D01*
X350500Y24500D02*X352000D01*
X350500Y26500D02*Y22500D01*
X351300Y24500D02*X352500Y22500D01*
X353700Y26000D02*X354200Y26500D01*
X355700D01*
X356200Y26000D01*
Y25000D01*
X353700Y22500D02*X356200Y25000D01*
X353700Y22500D02*X356200D01*
X115700Y64000D02*X116500D01*
Y60500D01*
X116000Y60000D02*X116500Y60500D01*
X115500Y60000D02*X116000D01*
X115000Y60500D02*X115500Y60000D01*
X115000Y61000D02*Y60500D01*
X117700Y63500D02*X118200Y64000D01*
X119200D01*
X119700Y63500D01*
X119200Y60000D02*X119700Y60500D01*
X118200Y60000D02*X119200D01*
X117700Y60500D02*X118200Y60000D01*
Y62200D02*X119200D01*
X119700Y63500D02*Y62700D01*
Y61700D02*Y60500D01*
Y61700D02*X119200Y62200D01*
X119700Y62700D02*X119200Y62200D01*
X283000Y72500D02*X284300D01*
X285000Y71800D02*X284300Y72500D01*
X285000Y71800D02*Y69200D01*
X284300Y68500D01*
X283000D02*X284300D01*
X281800Y72000D02*Y69000D01*
X281300Y68500D01*
X280300D02*X281300D01*
X280300D02*X279800Y69000D01*
Y72000D02*Y69000D01*
X280300Y72500D02*X279800Y72000D01*
X280300Y72500D02*X281300D01*
X281800Y72000D02*X281300Y72500D01*
X278600D02*Y68500D01*
X276100Y72500D01*
Y68500D01*
X274900Y72500D02*Y68500D01*
X272400Y72500D01*
Y68500D01*
X271200Y69300D02*X270400Y68500D01*
Y72500D02*Y68500D01*
X269700Y72500D02*X271200D01*
M02*
