G04 start of page 5 for group 2 layer_idx 0 *
G04 Title: (unknown), top mask *
G04 Creator: pcb-rnd 1.2.1 *
G04 CreationDate: Wed Mar 15 21:37:42 2017 UTC *
G04 For:  *
G04 Format: Gerber/RS-274X *
G04 PCB-Dimensions: 390000 390000 *
G04 PCB-Coordinate-Origin: lower left *
%MOIN*%
%FSLAX25Y25*%
%LNTOPMASK*%
%ADD68R,0.1280X0.1280*%
%ADD67R,0.0572X0.0572*%
%ADD66R,0.0620X0.0620*%
%ADD65C,0.2029*%
%ADD64C,0.1639*%
%ADD63C,0.0660*%
%ADD62C,0.0001*%
%ADD61C,0.0710*%
G54D61*X100000Y270000D03*
Y260000D03*
X85000D03*
X100000Y250000D03*
Y240000D03*
Y230000D03*
X85000Y220000D03*
Y230000D03*
Y240000D03*
Y250000D03*
X10000Y220000D03*
Y210000D03*
Y200000D03*
Y190000D03*
Y180000D03*
X25000D03*
Y190000D03*
X10000Y170000D03*
Y160000D03*
X25000D03*
G54D62*G36*
X21450Y173550D02*Y166450D01*
X28550D01*
Y173550D01*
X21450D01*
G37*
G54D61*X25000Y200000D03*
Y210000D03*
Y220000D03*
Y230000D03*
X50000D03*
X60000D03*
X100000Y220000D03*
Y210000D03*
Y200000D03*
Y190000D03*
Y180000D03*
X85000Y160000D03*
G54D62*G36*
X81450Y173550D02*Y166450D01*
X88550D01*
Y173550D01*
X81450D01*
G37*
G54D61*X85000Y180000D03*
Y190000D03*
Y200000D03*
Y210000D03*
X230000Y360000D03*
Y350000D03*
Y340000D03*
Y320000D03*
G54D63*X375000D03*
Y330000D03*
G54D64*X375138Y361752D03*
G54D63*X375000Y170000D03*
Y180000D03*
Y190000D03*
Y200000D03*
Y210000D03*
Y220000D03*
Y270000D03*
Y280000D03*
Y290000D03*
Y300000D03*
Y310000D03*
Y230000D03*
Y240000D03*
Y250000D03*
Y260000D03*
G54D61*X100000Y320000D03*
Y310000D03*
Y300000D03*
Y290000D03*
G54D62*G36*
X96450Y353550D02*Y346450D01*
X103550D01*
Y353550D01*
X96450D01*
G37*
G54D61*X100000Y340000D03*
Y330000D03*
Y280000D03*
X85000Y270000D03*
Y280000D03*
Y290000D03*
Y300000D03*
Y310000D03*
Y320000D03*
Y330000D03*
Y340000D03*
Y350000D03*
X50000Y360000D03*
Y350000D03*
Y340000D03*
G54D64*X119232Y361752D03*
G54D61*X50000Y310000D03*
Y300000D03*
Y290000D03*
Y280000D03*
Y270000D03*
Y260000D03*
Y250000D03*
Y240000D03*
Y320000D03*
X60000D03*
Y310000D03*
Y300000D03*
Y290000D03*
Y280000D03*
Y270000D03*
Y260000D03*
Y250000D03*
Y240000D03*
G54D62*G36*
X6450Y353550D02*Y346450D01*
X13550D01*
Y353550D01*
X6450D01*
G37*
G54D61*X10000Y340000D03*
Y330000D03*
Y320000D03*
Y310000D03*
Y300000D03*
Y290000D03*
Y280000D03*
Y270000D03*
Y260000D03*
Y250000D03*
Y240000D03*
Y230000D03*
X25000Y240000D03*
Y250000D03*
Y260000D03*
Y270000D03*
Y280000D03*
Y290000D03*
Y300000D03*
Y310000D03*
Y320000D03*
Y330000D03*
Y340000D03*
Y350000D03*
X330000Y280000D03*
Y270000D03*
Y260000D03*
Y250000D03*
Y290000D03*
Y300000D03*
X220000Y320000D03*
Y310000D03*
Y300000D03*
Y290000D03*
Y280000D03*
Y270000D03*
Y260000D03*
Y250000D03*
Y240000D03*
Y230000D03*
X230000Y310000D03*
Y300000D03*
Y290000D03*
Y280000D03*
Y270000D03*
Y260000D03*
Y250000D03*
Y240000D03*
Y230000D03*
X100000Y170000D03*
Y160000D03*
G54D62*G36*
X111700Y58300D02*Y51700D01*
X118300D01*
Y58300D01*
X111700D01*
G37*
G54D63*X115000Y45000D03*
Y35000D03*
X125000D03*
G54D62*G36*
X236450Y38550D02*Y31450D01*
X243550D01*
Y38550D01*
X236450D01*
G37*
G54D61*X240000Y45000D03*
G54D63*X115000Y25000D03*
X125000D03*
X115000Y15000D03*
X125000D03*
Y55000D03*
Y45000D03*
G54D64*X119232Y94035D03*
G54D63*X325000Y50000D03*
X355000D03*
X325000Y40000D03*
X355000D03*
G54D65*X275000Y57559D03*
Y30000D03*
X292717Y43780D03*
G54D62*G36*
X321700Y63300D02*Y56700D01*
X328300D01*
Y63300D01*
X321700D01*
G37*
G36*
X351700D02*Y56700D01*
X358300D01*
Y63300D01*
X351700D01*
G37*
G54D63*X375000Y150000D03*
Y160000D03*
G54D64*X375138Y94035D03*
G54D63*X375000Y140000D03*
G54D61*X330000Y240000D03*
Y230000D03*
Y220000D03*
Y210000D03*
Y200000D03*
Y190000D03*
Y180000D03*
Y170000D03*
Y160000D03*
Y150000D03*
G54D66*X156000Y63900D02*Y57300D01*
X165000Y63900D02*Y57300D01*
X174100Y63900D02*Y57300D01*
G54D67*X186457Y100393D02*Y99607D01*
X193543Y100393D02*Y99607D01*
X151457Y100393D02*Y99607D01*
X158543Y100393D02*Y99607D01*
G54D68*X160500Y85000D02*X169500D01*
X195500D02*X204500D01*
G54D66*X191000Y63900D02*Y57300D01*
X200000Y63900D02*Y57300D01*
X209100Y63900D02*Y57300D01*
M02*
