M48
INCH
T60C0.032
T59C0.118
T58C0.030
T57C0.043
T56C0.102
T55C0.038
T54C0.039
%
T58
X032500Y005000
X035500Y005000
X032500Y004000
X035500Y004000
X032500Y006000
X035500Y006000
T60
X035000Y028500
X027000Y030500
X029000Y030000
X027000Y028500
X026000Y027500
X025000Y026500
X030000Y028250
X024750Y029500
X025750Y034500
X026750Y034500
X027750Y034500
X035250Y024500
X016750Y024250
X013750Y024500
X011500Y015000
X005250Y021000
X005250Y020000
X005250Y019000
X012500Y015000
X013500Y015000
X020750Y015250
X019750Y015250
X018750Y015250
T55
X037500Y032000
X037500Y033000
X037500Y017000
X037500Y018000
X037500Y019000
X037500Y020000
X037500Y021000
X037500Y022000
X037500Y027000
X037500Y028000
X037500Y029000
X037500Y030000
X037500Y031000
X037500Y023000
X037500Y024000
X037500Y025000
X037500Y026000
X037500Y015000
X037500Y016000
X037500Y014000
T54
X010000Y027000
X010000Y026000
X008500Y026000
X010000Y025000
X010000Y024000
X010000Y023000
X008500Y022000
X008500Y023000
X008500Y024000
X008500Y025000
X001000Y022000
X001000Y021000
X001000Y020000
X001000Y019000
X001000Y018000
X002500Y018000
X002500Y019000
X001000Y017000
X001000Y016000
X002500Y016000
X002500Y017000
X002500Y020000
X002500Y021000
X002500Y022000
X002500Y023000
X005000Y023000
X006000Y023000
X010000Y022000
X010000Y021000
X010000Y020000
X010000Y019000
X010000Y018000
X008500Y016000
X008500Y017000
X008500Y018000
X008500Y019000
X008500Y020000
X008500Y021000
X023000Y036000
X023000Y035000
X023000Y034000
X023000Y032000
X010000Y032000
X010000Y031000
X010000Y030000
X010000Y029000
X010000Y035000
X010000Y034000
X010000Y033000
X010000Y028000
X008500Y027000
X008500Y028000
X008500Y029000
X008500Y030000
X008500Y031000
X008500Y032000
X008500Y033000
X008500Y034000
X008500Y035000
X005000Y036000
X005000Y035000
X005000Y034000
X005000Y031000
X005000Y030000
X005000Y029000
X005000Y028000
X005000Y027000
X005000Y026000
X005000Y025000
X005000Y024000
X005000Y032000
X006000Y032000
X006000Y031000
X006000Y030000
X006000Y029000
X006000Y028000
X006000Y027000
X006000Y026000
X006000Y025000
X006000Y024000
X001000Y035000
X001000Y034000
X001000Y033000
X001000Y032000
X001000Y031000
X001000Y030000
X001000Y029000
X001000Y028000
X001000Y027000
X001000Y026000
X001000Y025000
X001000Y024000
X001000Y023000
X002500Y024000
X002500Y025000
X002500Y026000
X002500Y027000
X002500Y028000
X002500Y029000
X002500Y030000
X002500Y031000
X002500Y032000
X002500Y033000
X002500Y034000
X002500Y035000
X033000Y028000
X033000Y027000
X033000Y026000
X033000Y025000
X033000Y029000
X033000Y030000
X022000Y032000
X022000Y031000
X022000Y030000
X022000Y029000
X022000Y028000
X022000Y027000
X022000Y026000
X022000Y025000
X022000Y024000
X022000Y023000
X023000Y031000
X023000Y030000
X023000Y029000
X023000Y028000
X023000Y027000
X023000Y026000
X023000Y025000
X023000Y024000
X023000Y023000
X010000Y017000
X010000Y016000
X011500Y005500
X011500Y004500
X011500Y003500
X012500Y003500
X011500Y002500
X012500Y002500
X011500Y001500
X012500Y001500
X012500Y005500
X012500Y004500
X033000Y024000
X033000Y023000
X033000Y022000
X033000Y021000
X033000Y020000
X033000Y019000
X033000Y018000
X033000Y017000
X033000Y016000
X033000Y015000
X031000Y030000
X029000Y014500
X007500Y007000
X015750Y004500
X019000Y004500
T57
X024000Y003500
X024000Y004500
T56
X037514Y036175
X011923Y036175
X011923Y009404
X037514Y009404
T59
X027500Y005756
X027500Y003000
X029272Y004378
M30
